<svg width="25" height="33" viewBox="0 0 25 33" fill="none" xmlns="http://www.w3.org/2000/svg">
<path d="M16.548 8.54523H21.4685V23.6589C21.4685 25.3558 21.0631 26.8407 20.2525 28.1134C19.4495 29.3861 18.3245 30.3786 16.8775 31.0907C15.4306 31.7952 13.745 32.1475 11.8207 32.1475C9.88891 32.1475 8.19951 31.7952 6.75254 31.0907C5.30557 30.3786 4.18057 29.3861 3.37754 28.1134C2.57451 26.8407 2.173 25.3558 2.173 23.6589V8.54523H7.09345V23.2384C7.09345 24.1248 7.28663 24.9127 7.673 25.6021C8.06694 26.2914 8.61997 26.8331 9.33209 27.2271C10.0442 27.621 10.8738 27.818 11.8207 27.818C12.7753 27.818 13.6048 27.621 14.3094 27.2271C15.0215 26.8331 15.5707 26.2914 15.9571 25.6021C16.351 24.9127 16.548 24.1248 16.548 23.2384V8.54523Z" fill="white"/>
<path d="M2.15027 14.818H7.45105" stroke="#779ab8" stroke-width="2"/>
<path d="M16.1503 14.818L22.1503 14.818" stroke="#779ab8" stroke-width="2"/>
</svg>
