<svg width="137" height="49" viewBox="0 0 137 49" fill="none" xmlns="http://www.w3.org/2000/svg">
<path d="M32.2383 34.6451L25.9867 9.6615L32.2383 9.6615L32.2383 34.6451Z" fill="black"/>
<path d="M7.55005 28.1482L32.3157 34.4763L7.55005 34.4763L7.55005 28.1482Z" fill="#048A75"/>
<path d="M32.1241 34.4301L14.4456 14.9851L21.1588 10.4666L32.1241 34.4301Z" fill="#048A75"/>
<path d="M32.0587 34.3737L7.74121 24.6926L11.8225 17.6645L32.0587 34.3737Z" fill="#048A75"/>
<path d="M67.1747 9.77894V35.9608H62.3935L51.0028 19.4821H50.8111V35.9608H45.2756V9.77894H50.1335L61.4347 26.2448H61.6648V9.77894H67.1747Z" fill="black"/>
<path d="M81.9062 8.28516C81.9414 8.35547 81.959 8.41406 81.959 8.46094C81.959 8.54297 81.9297 8.61328 81.8711 8.67188C81.8125 8.73047 81.7422 8.78906 81.6602 8.84766C81.5898 8.89453 81.5254 8.94727 81.4668 9.00586C81.4082 9.05273 81.3789 9.10547 81.3789 9.16406C81.3789 9.21094 81.3848 9.25781 81.3965 9.30469C81.4082 9.33984 81.4141 9.375 81.4141 9.41016C81.4141 9.44531 81.4082 9.46875 81.3965 9.48047C81.1973 9.67969 81.0625 9.85547 80.9922 10.0078C80.9219 10.1484 80.8457 10.2715 80.7637 10.377C80.6934 10.4707 80.5762 10.5469 80.4121 10.6055C80.248 10.6523 79.9727 10.6758 79.5859 10.6758C79.5039 10.6758 79.4277 10.6699 79.3574 10.6582C79.2871 10.6348 79.2109 10.623 79.1289 10.623C78.8945 10.623 78.6309 10.7168 78.3379 10.9043C78.0449 11.0801 77.7051 11.3906 77.3184 11.8359C77.1543 12.0234 77.0312 12.1758 76.9492 12.293C76.8672 12.4102 76.7969 12.5332 76.7383 12.6621C76.6914 12.7793 76.6445 12.9258 76.5977 13.1016C76.5508 13.2773 76.4863 13.5117 76.4043 13.8047C76.3926 13.8398 76.3633 13.875 76.3164 13.9102C76.2812 13.9336 76.2637 13.9863 76.2637 14.0684C76.252 14.291 76.2109 14.5723 76.1406 14.9121C76.0703 15.2402 75.9941 15.5625 75.9121 15.8789C75.8301 16.1953 75.7539 16.4824 75.6836 16.7402C75.625 16.9863 75.5957 17.1445 75.5957 17.2148C75.5957 17.3086 75.5957 17.3965 75.5957 17.4785C75.6074 17.5488 75.6133 17.6133 75.6133 17.6719C75.5547 17.8594 75.502 18.041 75.4551 18.2168C75.4199 18.3691 75.3848 18.5273 75.3496 18.6914C75.3262 18.8438 75.3145 18.9668 75.3145 19.0605C75.3145 19.2363 75.4023 19.3477 75.5781 19.3945C75.7656 19.4414 75.959 19.4648 76.1582 19.4648C76.4746 19.4648 76.75 19.4648 76.9844 19.4648C77.2305 19.4648 77.4531 19.4648 77.6523 19.4648C77.8633 19.4531 78.0625 19.4414 78.25 19.4297C78.4375 19.4062 78.6484 19.3711 78.8828 19.3242C78.918 19.3125 78.959 19.2891 79.0059 19.2539C79.0527 19.207 79.123 19.1836 79.2168 19.1836H79.4805C79.6914 19.1836 79.8203 19.1543 79.8672 19.0957C79.9141 19.0254 79.9434 18.9551 79.9551 18.8848C79.9785 18.8145 80.0137 18.75 80.0605 18.6914C80.1074 18.6211 80.248 18.5859 80.4824 18.5859C80.541 18.5859 80.5996 18.5859 80.6582 18.5859C80.7285 18.5742 80.793 18.5566 80.8516 18.5332C80.8984 18.6387 80.9219 18.75 80.9219 18.8672C80.9219 18.9961 80.8809 19.1016 80.7988 19.1836C80.7285 19.2656 80.6172 19.3535 80.4648 19.4473C80.4297 19.4707 80.3652 19.4941 80.2715 19.5176C80.1777 19.5293 80.1074 19.5527 80.0605 19.5879C79.9316 19.6934 79.8086 19.7988 79.6914 19.9043C79.5859 20.0098 79.4746 20.1094 79.3574 20.2031C79.252 20.2852 79.1289 20.3613 78.9883 20.4316C78.8477 20.502 78.6836 20.5664 78.4961 20.625C78.4023 20.6484 78.3145 20.666 78.2324 20.6777C78.1504 20.6895 78.0508 20.7012 77.9336 20.7129C77.8281 20.7246 77.7051 20.748 77.5645 20.7832C77.4238 20.8066 77.2539 20.8418 77.0547 20.8887C77.0195 20.9004 76.9551 20.9062 76.8613 20.9062C76.791 20.9062 76.7031 20.9062 76.5977 20.9062C76.4922 20.8945 76.3574 20.8887 76.1934 20.8887C75.8184 20.8887 75.543 20.918 75.3672 20.9766C75.1914 21.0352 75.0684 21.1406 74.998 21.293C74.9277 21.4453 74.8809 21.6621 74.8574 21.9434C74.834 22.2129 74.7812 22.5586 74.6992 22.9805C74.6055 23.4961 74.5117 23.9473 74.418 24.334C74.3242 24.7207 74.2773 24.9961 74.2773 25.1602C74.2773 25.2891 74.2773 25.418 74.2773 25.5469C74.2891 25.6641 74.2949 25.7871 74.2949 25.916C74.2949 26.3262 74.2715 26.7188 74.2246 27.0938C74.1777 27.457 74.1191 27.8145 74.0488 28.166C73.9785 28.5059 73.9023 28.8457 73.8203 29.1855C73.75 29.5254 73.6914 29.8711 73.6445 30.2227C73.6094 30.457 73.5859 30.6914 73.5742 30.9258C73.5625 31.1602 73.5449 31.4004 73.5215 31.6465C73.498 31.8105 73.4512 31.9688 73.3809 32.1211C73.3105 32.2617 73.2637 32.4141 73.2402 32.5781C73.1934 32.8477 73.1758 33.0879 73.1875 33.2988C73.1992 33.5098 73.1758 33.75 73.1172 34.0195C73.0938 34.1133 73.0703 34.1777 73.0469 34.2129C73.0234 34.2598 73 34.3242 72.9766 34.4062C72.9297 34.6758 72.8828 34.916 72.8359 35.127C72.8008 35.3496 72.7539 35.5547 72.6953 35.7422C72.6484 35.9414 72.5957 36.1348 72.5371 36.3223C72.4785 36.5098 72.4082 36.7031 72.3262 36.9023C72.3027 36.9609 72.25 37.043 72.168 37.1484C72.0977 37.2656 72.0625 37.3359 72.0625 37.3594C72.0625 37.4062 72.0625 37.4531 72.0625 37.5C72.0742 37.5586 72.0801 37.6172 72.0801 37.6758C72.0801 37.8047 71.9922 37.9336 71.8164 38.0625C71.6406 38.2031 71.459 38.3848 71.2715 38.6074C71.2129 38.6895 71.166 38.7773 71.1309 38.8711C71.1074 38.9766 71.0664 39.0645 71.0078 39.1348C70.9609 39.1934 70.8965 39.2344 70.8145 39.2578C70.7324 39.293 70.668 39.3398 70.6211 39.3984C70.5742 39.457 70.5391 39.5332 70.5156 39.627C70.4922 39.7324 70.4395 39.832 70.3574 39.9258C70.2754 40.0195 70.1875 40.125 70.0938 40.2422C70 40.3711 69.9004 40.4941 69.7949 40.6113C69.7012 40.7285 69.6133 40.8223 69.5312 40.8926C69.4492 40.9746 69.3848 41.0156 69.3379 41.0156C69.2793 41.0156 69.2207 40.9805 69.1621 40.9102C69.1152 40.8398 69.0684 40.7637 69.0215 40.6816C68.9863 40.5996 68.957 40.5176 68.9336 40.4355C68.9102 40.3652 68.8984 40.3184 68.8984 40.2949C68.8984 40.2012 68.9453 40.0957 69.0391 39.9785C69.1328 39.873 69.1797 39.7031 69.1797 39.4688C69.1797 39.4336 69.1738 39.3926 69.1621 39.3457C69.1621 39.3105 69.1621 39.2754 69.1621 39.2402C69.1621 39.1465 69.1855 39.0879 69.2324 39.0645C69.2793 39.041 69.3027 39.0234 69.3027 39.0117C69.373 38.7656 69.4492 38.543 69.5312 38.3438C69.625 38.1445 69.6836 37.9277 69.707 37.6934C69.707 37.6699 69.7012 37.6406 69.6895 37.6055C69.6895 37.5703 69.6895 37.541 69.6895 37.5176C69.6895 37.459 69.7305 37.377 69.8125 37.2715C69.8945 37.1777 69.9473 37.1016 69.9707 37.043C70.0293 36.7969 70.0469 36.5625 70.0234 36.3398C70.0117 36.1289 70.0352 35.9238 70.0938 35.7246C70.1172 35.6074 70.1582 35.4844 70.2168 35.3555C70.2871 35.2266 70.334 35.0859 70.3574 34.9336C70.4395 34.4648 70.4922 33.9551 70.5156 33.4043C70.5508 32.8535 70.6328 32.3555 70.7617 31.9102C70.7852 31.8281 70.8086 31.7637 70.832 31.7168C70.8672 31.6699 70.8848 31.6348 70.8848 31.6113C70.8848 31.5293 70.8613 31.4414 70.8145 31.3477C70.7793 31.2422 70.7617 31.1426 70.7617 31.0488V31.0137C70.8086 31.0137 70.8496 30.9492 70.8848 30.8203C70.9316 30.6797 70.9668 30.5039 70.9902 30.293C71.0254 30.0703 71.0547 29.8301 71.0781 29.5723C71.1016 29.3027 71.125 29.0391 71.1484 28.7812C71.1719 28.5117 71.1895 28.2598 71.2012 28.0254C71.2246 27.791 71.248 27.6035 71.2715 27.4629C71.3066 27.2051 71.3535 26.9883 71.4121 26.8125C71.4824 26.6367 71.5293 26.4141 71.5527 26.1445C71.5527 25.9922 71.5996 25.7578 71.6934 25.4414C71.7988 25.1133 71.9102 24.7441 72.0273 24.334C72.1445 23.9121 72.25 23.4551 72.3438 22.9629C72.4375 22.4707 72.4844 21.9727 72.4844 21.4688C72.4844 21.3047 72.4199 21.2051 72.291 21.1699C72.1738 21.123 72.0156 21.0996 71.8164 21.0996C71.4414 21.0996 71.1191 21.1406 70.8496 21.2227C70.5918 21.293 70.3633 21.375 70.1641 21.4688C69.9648 21.5625 69.7832 21.6504 69.6191 21.7324C69.4551 21.8027 69.291 21.8379 69.127 21.8379C69.0801 21.8379 69.0098 21.8262 68.916 21.8027C68.9277 21.6387 68.9688 21.4922 69.0391 21.3633C69.1094 21.2344 69.1914 21.1172 69.2852 21.0117C69.3906 20.8945 69.502 20.7891 69.6191 20.6953C69.748 20.5898 69.8652 20.4844 69.9707 20.3789C70.1582 20.2031 70.3574 19.9863 70.5684 19.7285C70.791 19.4707 71.0254 19.2891 71.2715 19.1836C71.377 19.1367 71.4941 19.1133 71.623 19.1133C71.7637 19.1016 71.8984 19.0957 72.0273 19.0957C72.168 19.084 72.2969 19.0723 72.4141 19.0605C72.5312 19.0371 72.6367 18.9902 72.7305 18.9199C72.8711 18.8027 72.9707 18.627 73.0293 18.3926C73.0879 18.1465 73.1289 17.8887 73.1523 17.6191C73.1758 17.3379 73.1992 17.0566 73.2227 16.7754C73.2461 16.4941 73.2988 16.248 73.3809 16.0371C73.4043 15.9785 73.4277 15.9375 73.4512 15.9141C73.4746 15.8789 73.498 15.8496 73.5215 15.8262C73.5449 15.8027 73.5684 15.7676 73.5918 15.7207C73.6152 15.6738 73.6328 15.6035 73.6445 15.5098C73.668 15.2871 73.7266 15.0879 73.8203 14.9121C73.9141 14.7363 74.0254 14.543 74.1543 14.332C74.1895 14.2969 74.2188 14.2852 74.2422 14.2969C74.2773 14.3086 74.2949 14.2734 74.2949 14.1914C74.2949 14.1094 74.3477 14.0391 74.4531 13.9805C74.5586 13.9102 74.6406 13.8105 74.6992 13.6816C74.793 13.5059 74.8691 13.3184 74.9277 13.1191C74.9863 12.9199 75.0801 12.7559 75.209 12.627C75.2324 12.6035 75.2734 12.5801 75.332 12.5566C75.3906 12.5332 75.4492 12.5156 75.5078 12.5039C75.5664 12.4805 75.6191 12.457 75.666 12.4336C75.7129 12.3984 75.7363 12.3574 75.7363 12.3105C75.7363 12.2871 75.7305 12.2578 75.7188 12.2227C75.7188 12.1875 75.7188 12.1582 75.7188 12.1348C75.7188 12.1113 75.748 12.0645 75.8066 11.9941C75.8652 11.9238 75.9238 11.8477 75.9824 11.7656C76.0527 11.6836 76.1172 11.6133 76.1758 11.5547C76.2344 11.4844 76.2637 11.4492 76.2637 11.4492C76.2637 11.4258 76.3223 11.3613 76.4395 11.2559C76.5566 11.1387 76.6914 11.0156 76.8438 10.8867C76.9961 10.7461 77.1426 10.6172 77.2832 10.5C77.4355 10.3828 77.5352 10.3008 77.582 10.2539C77.6172 10.2188 77.6875 10.1836 77.793 10.1484C77.8984 10.1016 77.998 10.0488 78.0918 9.99023C78.1621 9.95508 78.209 9.91406 78.2324 9.86719C78.2676 9.82031 78.3145 9.7793 78.373 9.74414C78.4199 9.69727 78.4785 9.67383 78.5488 9.67383C78.6309 9.67383 78.7012 9.65039 78.7598 9.60352C78.9941 9.41602 79.1758 9.22266 79.3047 9.02344C79.4453 8.8125 79.6152 8.66016 79.8145 8.56641C79.873 8.53125 79.9727 8.50781 80.1133 8.49609C80.2539 8.48437 80.3711 8.46094 80.4648 8.42578C80.5938 8.39062 80.6992 8.33789 80.7812 8.26758C80.8633 8.19727 80.9805 8.16211 81.1328 8.16211C81.168 8.16211 81.1973 8.18555 81.2207 8.23242C81.2559 8.26758 81.3027 8.28516 81.3613 8.28516C81.373 8.28516 81.3965 8.26758 81.4316 8.23242C81.4785 8.18555 81.5664 8.16211 81.6953 8.16211C81.7891 8.16211 81.8594 8.20312 81.9062 8.28516Z" fill="black"/>
<path d="M86.2756 35.9608V9.77894H96.7585C98.6847 9.77894 100.291 10.0644 101.578 10.6355C102.865 11.2065 103.832 11.9991 104.48 13.0133C105.128 14.019 105.452 15.1781 105.452 16.4906C105.452 17.5133 105.247 18.4125 104.838 19.188C104.429 19.9551 103.866 20.5858 103.151 21.0801C102.443 21.5659 101.634 21.911 100.722 22.1156V22.3713C101.719 22.4139 102.652 22.6951 103.521 23.215C104.399 23.7349 105.111 24.4636 105.656 25.4011C106.202 26.3301 106.474 27.438 106.474 28.725C106.474 30.1142 106.129 31.3542 105.439 32.4451C104.757 33.5275 103.747 34.384 102.409 35.0147C101.071 35.6454 99.4219 35.9608 97.4616 35.9608H86.2756ZM91.8111 31.4352H96.3239C97.8665 31.4352 98.9915 31.1412 99.6989 30.5531C100.406 29.9565 100.76 29.1639 100.76 28.1752C100.76 27.4508 100.585 26.8116 100.236 26.2576C99.8864 25.7037 99.3878 25.269 98.7401 24.9537C98.1009 24.6383 97.3381 24.4806 96.4517 24.4806H91.8111V31.4352ZM91.8111 20.7349H95.9148C96.6733 20.7349 97.3466 20.6028 97.9347 20.3386C98.5313 20.0659 99 19.6823 99.3409 19.188C99.6903 18.6937 99.8651 18.1014 99.8651 17.411C99.8651 16.465 99.5284 15.7022 98.8551 15.1227C98.1903 14.5431 97.2443 14.2534 96.017 14.2534H91.8111V20.7349Z" fill="black"/>
<path d="M110.276 35.9608V9.77894H115.811V20.5815H127.048V9.77894H132.571V35.9608H127.048V25.1454H115.811V35.9608H110.276Z" fill="black"/>
<path d="M41.8111 9.77894V35.9608H36.2756V9.77894H41.8111Z" fill="black"/>
<path d="M36.3523 43.4314V40.5223H37.3352C37.5625 40.5223 37.7491 40.5611 37.8949 40.6388C38.0407 40.7155 38.1487 40.8211 38.2188 40.9555C38.2888 41.09 38.3239 41.2429 38.3239 41.4144C38.3239 41.5858 38.2888 41.7377 38.2188 41.8703C38.1487 42.0029 38.0412 42.1071 37.8963 42.1828C37.7514 42.2576 37.5663 42.295 37.3409 42.295H36.5455V41.9769H37.3295C37.4848 41.9769 37.6098 41.9541 37.7045 41.9087C37.8002 41.8632 37.8693 41.7988 37.9119 41.7155C37.9555 41.6312 37.9773 41.5308 37.9773 41.4144C37.9773 41.2979 37.9555 41.1961 37.9119 41.109C37.8684 41.0218 37.7988 40.9546 37.7031 40.9072C37.6075 40.859 37.4811 40.8348 37.3239 40.8348H36.7045V43.4314H36.3523ZM37.7216 42.1246L38.4375 43.4314H38.0284L37.3239 42.1246H37.7216ZM40.1167 43.4769C39.9065 43.4769 39.7252 43.4304 39.5727 43.3376C39.4212 43.2439 39.3042 43.1132 39.2219 42.9456C39.1404 42.777 39.0997 42.581 39.0997 42.3575C39.0997 42.134 39.1404 41.9371 39.2219 41.7666C39.3042 41.5952 39.4188 41.4617 39.5656 41.3661C39.7133 41.2695 39.8857 41.2212 40.0827 41.2212C40.1963 41.2212 40.3085 41.2401 40.4193 41.278C40.5301 41.3159 40.631 41.3774 40.7219 41.4626C40.8128 41.5469 40.8852 41.6587 40.9392 41.7979C40.9932 41.9371 41.0202 42.1085 41.0202 42.3121V42.4541H39.3383V42.1644H40.6792C40.6792 42.0412 40.6546 41.9314 40.6054 41.8348C40.5571 41.7382 40.488 41.662 40.398 41.6061C40.309 41.5502 40.2039 41.5223 40.0827 41.5223C39.9491 41.5223 39.8336 41.5554 39.7361 41.6217C39.6395 41.6871 39.5651 41.7723 39.5131 41.8774C39.461 41.9825 39.4349 42.0952 39.4349 42.2155V42.4087C39.4349 42.5734 39.4633 42.7131 39.5202 42.8277C39.5779 42.9413 39.6579 43.028 39.7602 43.0876C39.8625 43.1464 39.9813 43.1757 40.1167 43.1757C40.2048 43.1757 40.2844 43.1634 40.3554 43.1388C40.4274 43.1132 40.4894 43.0753 40.5415 43.0251C40.5935 42.974 40.6338 42.9106 40.6622 42.8348L40.9861 42.9257C40.952 43.0356 40.8947 43.1322 40.8142 43.2155C40.7337 43.2979 40.6343 43.3623 40.5159 43.4087C40.3975 43.4541 40.2645 43.4769 40.1167 43.4769ZM43.4356 41.7382L43.1344 41.8234C43.1155 41.7733 43.0875 41.7245 43.0506 41.6771C43.0146 41.6288 42.9654 41.5891 42.9029 41.5578C42.8404 41.5266 42.7604 41.5109 42.6628 41.5109C42.5293 41.5109 42.418 41.5417 42.329 41.6033C42.241 41.6639 42.1969 41.7411 42.1969 41.8348C42.1969 41.9181 42.2272 41.984 42.2878 42.0322C42.3484 42.0805 42.4431 42.1208 42.5719 42.153L42.8958 42.2325C43.0909 42.2799 43.2362 42.3523 43.3319 42.4499C43.4275 42.5465 43.4753 42.671 43.4753 42.8234C43.4753 42.9484 43.4393 43.0602 43.3674 43.1587C43.2963 43.2572 43.1969 43.3348 43.0691 43.3916C42.9412 43.4484 42.7926 43.4769 42.6231 43.4769C42.4005 43.4769 42.2163 43.4286 42.0705 43.332C41.9247 43.2354 41.8323 43.0943 41.7935 42.9087L42.1117 42.8291C42.142 42.9465 42.1993 43.0346 42.2836 43.0933C42.3688 43.152 42.4801 43.1814 42.6174 43.1814C42.7736 43.1814 42.8977 43.1483 42.9895 43.082C43.0823 43.0147 43.1287 42.9342 43.1287 42.8405C43.1287 42.7647 43.1022 42.7013 43.0492 42.6501C42.9962 42.5981 42.9147 42.5592 42.8049 42.5337L42.4412 42.4484C42.2414 42.4011 42.0946 42.3277 42.0009 42.2283C41.9081 42.1279 41.8617 42.0024 41.8617 41.8519C41.8617 41.7287 41.8963 41.6198 41.9654 41.5251C42.0355 41.4304 42.1306 41.3561 42.2509 41.3021C42.3721 41.2482 42.5094 41.2212 42.6628 41.2212C42.8787 41.2212 43.0482 41.2685 43.1713 41.3632C43.2954 41.4579 43.3835 41.5829 43.4356 41.7382ZM45.2263 43.4769C45.0293 43.4769 44.8565 43.43 44.7078 43.3362C44.5601 43.2425 44.4446 43.1113 44.3612 42.9428C44.2789 42.7742 44.2377 42.5772 44.2377 42.3519C44.2377 42.1246 44.2789 41.9262 44.3612 41.7567C44.4446 41.5872 44.5601 41.4555 44.7078 41.3618C44.8565 41.268 45.0293 41.2212 45.2263 41.2212C45.4233 41.2212 45.5956 41.268 45.7434 41.3618C45.892 41.4555 46.0076 41.5872 46.0899 41.7567C46.1733 41.9262 46.2149 42.1246 46.2149 42.3519C46.2149 42.5772 46.1733 42.7742 46.0899 42.9428C46.0076 43.1113 45.892 43.2425 45.7434 43.3362C45.5956 43.43 45.4233 43.4769 45.2263 43.4769ZM45.2263 43.1757C45.3759 43.1757 45.499 43.1374 45.5956 43.0607C45.6922 42.984 45.7637 42.8831 45.8101 42.7581C45.8565 42.6331 45.8797 42.4977 45.8797 42.3519C45.8797 42.206 45.8565 42.0701 45.8101 41.9442C45.7637 41.8182 45.6922 41.7164 45.5956 41.6388C45.499 41.5611 45.3759 41.5223 45.2263 41.5223C45.0767 41.5223 44.9536 41.5611 44.857 41.6388C44.7604 41.7164 44.6889 41.8182 44.6425 41.9442C44.5961 42.0701 44.5729 42.206 44.5729 42.3519C44.5729 42.4977 44.5961 42.6331 44.6425 42.7581C44.6889 42.8831 44.7604 42.984 44.857 43.0607C44.9536 43.1374 45.0767 43.1757 45.2263 43.1757ZM48.4617 42.5394V41.2496H48.7969V43.4314H48.4617V43.0621H48.4389C48.3878 43.1729 48.3083 43.2671 48.2003 43.3447C48.0923 43.4215 47.956 43.4598 47.7912 43.4598C47.6548 43.4598 47.5336 43.43 47.4276 43.3703C47.3215 43.3097 47.2382 43.2188 47.1776 43.0976C47.117 42.9754 47.0867 42.8215 47.0867 42.6359V41.2496H47.4219V42.6132C47.4219 42.7723 47.4664 42.8992 47.5554 42.9939C47.6454 43.0886 47.76 43.1359 47.8992 43.1359C47.9825 43.1359 48.0672 43.1146 48.1534 43.072C48.2405 43.0294 48.3135 42.9641 48.3722 42.876C48.4318 42.7879 48.4617 42.6757 48.4617 42.5394ZM49.7709 43.4314V41.2496H50.0947V41.5791H50.1175C50.1572 41.4712 50.2292 41.3836 50.3334 41.3163C50.4375 41.2491 50.555 41.2155 50.6857 41.2155C50.7103 41.2155 50.7411 41.216 50.778 41.2169C50.8149 41.2179 50.8429 41.2193 50.8618 41.2212V41.5621C50.8504 41.5592 50.8244 41.555 50.7837 41.5493C50.7439 41.5427 50.7018 41.5394 50.6572 41.5394C50.5512 41.5394 50.4565 41.5616 50.3732 41.6061C50.2908 41.6497 50.2254 41.7103 50.1771 41.7879C50.1298 41.8646 50.1061 41.9522 50.1061 42.0507V43.4314H49.7709ZM52.4391 43.4769C52.2346 43.4769 52.0584 43.4286 51.9107 43.332C51.763 43.2354 51.6493 43.1023 51.5698 42.9328C51.4903 42.7633 51.4505 42.5697 51.4505 42.3519C51.4505 42.1303 51.4912 41.9347 51.5726 41.7652C51.655 41.5947 51.7696 41.4617 51.9164 41.3661C52.0641 41.2695 52.2365 41.2212 52.4334 41.2212C52.5868 41.2212 52.7251 41.2496 52.8482 41.3064C52.9713 41.3632 53.0722 41.4428 53.1508 41.545C53.2294 41.6473 53.2781 41.7666 53.2971 41.903H52.9618C52.9363 41.8036 52.8795 41.7155 52.7914 41.6388C52.7043 41.5611 52.5868 41.5223 52.4391 41.5223C52.3084 41.5223 52.1939 41.5564 52.0954 41.6246C51.9978 41.6918 51.9216 41.787 51.8667 41.9101C51.8127 42.0322 51.7857 42.1757 51.7857 42.3405C51.7857 42.509 51.8122 42.6558 51.8653 42.7808C51.9192 42.9058 51.995 43.0029 52.0925 43.072C52.191 43.1412 52.3065 43.1757 52.4391 43.1757C52.5262 43.1757 52.6053 43.1606 52.6763 43.1303C52.7474 43.1 52.8075 43.0564 52.8567 42.9996C52.906 42.9428 52.941 42.8746 52.9618 42.795H53.2971C53.2781 42.9238 53.2313 43.0398 53.1564 43.143C53.0826 43.2453 52.9846 43.3268 52.8624 43.3874C52.7412 43.447 52.6001 43.4769 52.4391 43.4769ZM55.0619 43.4769C54.8517 43.4769 54.6703 43.4304 54.5179 43.3376C54.3664 43.2439 54.2494 43.1132 54.167 42.9456C54.0856 42.777 54.0449 42.581 54.0449 42.3575C54.0449 42.134 54.0856 41.9371 54.167 41.7666C54.2494 41.5952 54.364 41.4617 54.5108 41.3661C54.6585 41.2695 54.8308 41.2212 55.0278 41.2212C55.1414 41.2212 55.2537 41.2401 55.3645 41.278C55.4753 41.3159 55.5761 41.3774 55.667 41.4626C55.7579 41.5469 55.8304 41.6587 55.8843 41.7979C55.9383 41.9371 55.9653 42.1085 55.9653 42.3121V42.4541H54.2835V42.1644H55.6244C55.6244 42.0412 55.5998 41.9314 55.5505 41.8348C55.5022 41.7382 55.4331 41.662 55.3432 41.6061C55.2541 41.5502 55.149 41.5223 55.0278 41.5223C54.8943 41.5223 54.7788 41.5554 54.6812 41.6217C54.5846 41.6871 54.5103 41.7723 54.4582 41.8774C54.4061 41.9825 54.3801 42.0952 54.3801 42.2155V42.4087C54.3801 42.5734 54.4085 42.7131 54.4653 42.8277C54.5231 42.9413 54.6031 43.028 54.7054 43.0876C54.8076 43.1464 54.9265 43.1757 55.0619 43.1757C55.15 43.1757 55.2295 43.1634 55.3005 43.1388C55.3725 43.1132 55.4345 43.0753 55.4866 43.0251C55.5387 42.974 55.5789 42.9106 55.6074 42.8348L55.9312 42.9257C55.8971 43.0356 55.8398 43.1322 55.7593 43.2155C55.6789 43.2979 55.5794 43.3623 55.4611 43.4087C55.3427 43.4541 55.2096 43.4769 55.0619 43.4769ZM58.3657 40.5223H58.7862L59.7748 42.9371H59.8089L60.7975 40.5223H61.218V43.4314H60.8884V41.2212H60.86L59.9509 43.4314H59.6328L58.7237 41.2212H58.6953V43.4314H58.3657V40.5223ZM62.8809 43.4825C62.7426 43.4825 62.6172 43.4565 62.5045 43.4044C62.3918 43.3514 62.3023 43.2751 62.236 43.1757C62.1697 43.0753 62.1366 42.9541 62.1366 42.8121C62.1366 42.6871 62.1612 42.5858 62.2104 42.5081C62.2597 42.4295 62.3255 42.3679 62.4079 42.3234C62.4903 42.2789 62.5812 42.2458 62.6806 42.224C62.781 42.2013 62.8818 42.1833 62.9832 42.17C63.1157 42.153 63.2232 42.1402 63.3056 42.1317C63.3889 42.1222 63.4496 42.1066 63.4874 42.0848C63.5263 42.063 63.5457 42.0251 63.5457 41.9712V41.9598C63.5457 41.8197 63.5073 41.7108 63.4306 41.6331C63.3549 41.5554 63.2398 41.5166 63.0854 41.5166C62.9254 41.5166 62.7999 41.5517 62.709 41.6217C62.6181 41.6918 62.5542 41.7666 62.5173 41.8462L62.1991 41.7325C62.2559 41.6 62.3317 41.4967 62.4263 41.4229C62.522 41.3481 62.6262 41.296 62.7388 41.2666C62.8525 41.2363 62.9642 41.2212 63.0741 41.2212C63.1442 41.2212 63.2246 41.2297 63.3156 41.2467C63.4074 41.2628 63.496 41.2965 63.5812 41.3476C63.6674 41.3987 63.7388 41.4759 63.7957 41.5791C63.8525 41.6823 63.8809 41.8206 63.8809 41.9939V43.4314H63.5457V43.1359H63.5286C63.5059 43.1833 63.468 43.234 63.415 43.2879C63.362 43.3419 63.2914 43.3878 63.2033 43.4257C63.1153 43.4636 63.0078 43.4825 62.8809 43.4825ZM62.932 43.1814C63.0646 43.1814 63.1763 43.1554 63.2673 43.1033C63.3591 43.0512 63.4282 42.984 63.4746 42.9016C63.522 42.8192 63.5457 42.7325 63.5457 42.6416V42.3348C63.5315 42.3519 63.5002 42.3675 63.4519 42.3817C63.4046 42.3949 63.3496 42.4068 63.2871 42.4172C63.2256 42.4267 63.1655 42.4352 63.1067 42.4428C63.049 42.4494 63.0021 42.4551 62.9661 42.4598C62.879 42.4712 62.7976 42.4896 62.7218 42.5152C62.647 42.5398 62.5864 42.5772 62.54 42.6274C62.4945 42.6767 62.4718 42.7439 62.4718 42.8291C62.4718 42.9456 62.5149 43.0337 62.6011 43.0933C62.6882 43.152 62.7985 43.1814 62.932 43.1814ZM65.188 42.1189V43.4314H64.8528V41.2496H65.1766V41.5905H65.205C65.2562 41.4797 65.3338 41.3907 65.438 41.3234C65.5422 41.2553 65.6766 41.2212 65.8414 41.2212C65.9891 41.2212 66.1184 41.2515 66.2292 41.3121C66.34 41.3717 66.4261 41.4626 66.4877 41.5848C66.5493 41.706 66.58 41.8594 66.58 42.045V43.4314H66.2448V42.0678C66.2448 41.8964 66.2003 41.7628 66.1113 41.6672C66.0223 41.5706 65.9001 41.5223 65.7448 41.5223C65.6378 41.5223 65.5422 41.5455 65.4579 41.5919C65.3745 41.6383 65.3087 41.706 65.2604 41.795C65.2121 41.884 65.188 41.992 65.188 42.1189ZM68.1946 43.4825C68.0564 43.4825 67.9309 43.4565 67.8182 43.4044C67.7055 43.3514 67.616 43.2751 67.5498 43.1757C67.4835 43.0753 67.4503 42.9541 67.4503 42.8121C67.4503 42.6871 67.4749 42.5858 67.5242 42.5081C67.5734 42.4295 67.6392 42.3679 67.7216 42.3234C67.804 42.2789 67.8949 42.2458 67.9944 42.224C68.0947 42.2013 68.1956 42.1833 68.2969 42.17C68.4295 42.153 68.537 42.1402 68.6194 42.1317C68.7027 42.1222 68.7633 42.1066 68.8012 42.0848C68.84 42.063 68.8594 42.0251 68.8594 41.9712V41.9598C68.8594 41.8197 68.8211 41.7108 68.7444 41.6331C68.6686 41.5554 68.5535 41.5166 68.3992 41.5166C68.2392 41.5166 68.1137 41.5517 68.0228 41.6217C67.9319 41.6918 67.8679 41.7666 67.831 41.8462L67.5128 41.7325C67.5696 41.6 67.6454 41.4967 67.7401 41.4229C67.8357 41.3481 67.9399 41.296 68.0526 41.2666C68.1662 41.2363 68.278 41.2212 68.3878 41.2212C68.4579 41.2212 68.5384 41.2297 68.6293 41.2467C68.7212 41.2628 68.8097 41.2965 68.8949 41.3476C68.9811 41.3987 69.0526 41.4759 69.1094 41.5791C69.1662 41.6823 69.1946 41.8206 69.1946 41.9939V43.4314H68.8594V43.1359H68.8424C68.8196 43.1833 68.7818 43.234 68.7287 43.2879C68.6757 43.3419 68.6052 43.3878 68.5171 43.4257C68.429 43.4636 68.3215 43.4825 68.1946 43.4825ZM68.2458 43.1814C68.3784 43.1814 68.4901 43.1554 68.581 43.1033C68.6729 43.0512 68.742 42.984 68.7884 42.9016C68.8357 42.8192 68.8594 42.7325 68.8594 42.6416V42.3348C68.8452 42.3519 68.814 42.3675 68.7657 42.3817C68.7183 42.3949 68.6634 42.4068 68.6009 42.4172C68.5393 42.4267 68.4792 42.4352 68.4205 42.4428C68.3627 42.4494 68.3159 42.4551 68.2799 42.4598C68.1928 42.4712 68.1113 42.4896 68.0356 42.5152C67.9607 42.5398 67.9001 42.5772 67.8537 42.6274C67.8083 42.6767 67.7856 42.7439 67.7856 42.8291C67.7856 42.9456 67.8286 43.0337 67.9148 43.0933C68.0019 43.152 68.1123 43.1814 68.2458 43.1814ZM71.0472 44.295C70.8853 44.295 70.7461 44.2742 70.6296 44.2325C70.5131 44.1918 70.416 44.1378 70.3384 44.0706C70.2617 44.0043 70.2006 43.9333 70.1551 43.8575L70.4222 43.67C70.4525 43.7098 70.4908 43.7553 70.5372 43.8064C70.5836 43.8585 70.6471 43.9035 70.7276 43.9413C70.809 43.9802 70.9156 43.9996 71.0472 43.9996C71.2233 43.9996 71.3687 43.957 71.4833 43.8717C71.5979 43.7865 71.6551 43.653 71.6551 43.4712V43.028H71.6267C71.6021 43.0678 71.5671 43.117 71.5216 43.1757C71.4771 43.2335 71.4127 43.2851 71.3284 43.3305C71.2451 43.3751 71.1324 43.3973 70.9904 43.3973C70.8142 43.3973 70.6561 43.3556 70.5159 43.2723C70.3767 43.189 70.2664 43.0678 70.185 42.9087C70.1045 42.7496 70.0642 42.5564 70.0642 42.3291C70.0642 42.1056 70.1035 41.911 70.1821 41.7453C70.2607 41.5787 70.3701 41.4499 70.5103 41.359C70.6504 41.2671 70.8123 41.2212 70.9961 41.2212C71.1381 41.2212 71.2508 41.2448 71.3341 41.2922C71.4184 41.3386 71.4828 41.3916 71.5273 41.4513C71.5728 41.51 71.6078 41.5583 71.6324 41.5962H71.6665V41.2496H71.9904V43.4939C71.9904 43.6814 71.9478 43.8339 71.8625 43.9513C71.7782 44.0697 71.6646 44.1563 71.5216 44.2112C71.3796 44.2671 71.2214 44.295 71.0472 44.295ZM71.0358 43.0962C71.1703 43.0962 71.2839 43.0654 71.3767 43.0038C71.4695 42.9423 71.5401 42.8537 71.5884 42.7382C71.6367 42.6227 71.6608 42.4844 71.6608 42.3234C71.6608 42.1662 71.6371 42.0275 71.5898 41.9072C71.5425 41.787 71.4724 41.6928 71.3796 41.6246C71.2868 41.5564 71.1722 41.5223 71.0358 41.5223C70.8938 41.5223 70.7754 41.5583 70.6807 41.6303C70.587 41.7022 70.5164 41.7988 70.4691 41.92C70.4227 42.0412 70.3995 42.1757 70.3995 42.3234C70.3995 42.475 70.4231 42.609 70.4705 42.7254C70.5188 42.841 70.5898 42.9319 70.6836 42.9982C70.7782 43.0635 70.8957 43.0962 71.0358 43.0962ZM73.8788 43.4769C73.6686 43.4769 73.4872 43.4304 73.3347 43.3376C73.1832 43.2439 73.0663 43.1132 72.9839 42.9456C72.9025 42.777 72.8617 42.581 72.8617 42.3575C72.8617 42.134 72.9025 41.9371 72.9839 41.7666C73.0663 41.5952 73.1809 41.4617 73.3276 41.3661C73.4754 41.2695 73.6477 41.2212 73.8447 41.2212C73.9583 41.2212 74.0705 41.2401 74.1813 41.278C74.2921 41.3159 74.393 41.3774 74.4839 41.4626C74.5748 41.5469 74.6472 41.6587 74.7012 41.7979C74.7552 41.9371 74.7822 42.1085 74.7822 42.3121V42.4541H73.1004V42.1644H74.4413C74.4413 42.0412 74.4167 41.9314 74.3674 41.8348C74.3191 41.7382 74.25 41.662 74.16 41.6061C74.071 41.5502 73.9659 41.5223 73.8447 41.5223C73.7112 41.5223 73.5956 41.5554 73.4981 41.6217C73.4015 41.6871 73.3272 41.7723 73.2751 41.8774C73.223 41.9825 73.197 42.0952 73.197 42.2155V42.4087C73.197 42.5734 73.2254 42.7131 73.2822 42.8277C73.34 42.9413 73.42 43.028 73.5222 43.0876C73.6245 43.1464 73.7434 43.1757 73.8788 43.1757C73.9668 43.1757 74.0464 43.1634 74.1174 43.1388C74.1894 43.1132 74.2514 43.0753 74.3035 43.0251C74.3556 42.974 74.3958 42.9106 74.4242 42.8348L74.7481 42.9257C74.714 43.0356 74.6567 43.1322 74.5762 43.2155C74.4957 43.2979 74.3963 43.3623 74.2779 43.4087C74.1596 43.4541 74.0265 43.4769 73.8788 43.4769ZM75.6521 43.4314V41.2496H75.976V41.5905H76.0044C76.0499 41.474 76.1232 41.3836 76.2246 41.3192C76.3259 41.2538 76.4476 41.2212 76.5896 41.2212C76.7336 41.2212 76.8534 41.2538 76.949 41.3192C77.0456 41.3836 77.1209 41.474 77.1749 41.5905H77.1976C77.2535 41.4778 77.3373 41.3883 77.449 41.322C77.5607 41.2548 77.6947 41.2212 77.851 41.2212C78.0461 41.2212 78.2056 41.2822 78.3297 41.4044C78.4537 41.5256 78.5158 41.7145 78.5158 41.9712V43.4314H78.1805V41.9712C78.1805 41.8102 78.1365 41.6951 78.0484 41.626C77.9604 41.5569 77.8567 41.5223 77.7374 41.5223C77.584 41.5223 77.4651 41.5687 77.3808 41.6615C77.2965 41.7534 77.2544 41.8698 77.2544 42.0109V43.4314H76.9135V41.9371C76.9135 41.813 76.8732 41.7131 76.7928 41.6374C76.7123 41.5607 76.6086 41.5223 76.4817 41.5223C76.3946 41.5223 76.3131 41.5455 76.2374 41.5919C76.1625 41.6383 76.1019 41.7027 76.0555 41.7851C76.0101 41.8665 75.9874 41.9608 75.9874 42.0678V43.4314H75.6521ZM80.4035 43.4769C80.1932 43.4769 80.0119 43.4304 79.8594 43.3376C79.7079 43.2439 79.591 43.1132 79.5086 42.9456C79.4271 42.777 79.3864 42.581 79.3864 42.3575C79.3864 42.134 79.4271 41.9371 79.5086 41.7666C79.591 41.5952 79.7056 41.4617 79.8523 41.3661C80.0001 41.2695 80.1724 41.2212 80.3694 41.2212C80.483 41.2212 80.5952 41.2401 80.706 41.278C80.8168 41.3159 80.9177 41.3774 81.0086 41.4626C81.0995 41.5469 81.1719 41.6587 81.2259 41.7979C81.2799 41.9371 81.3069 42.1085 81.3069 42.3121V42.4541H79.6251V42.1644H80.966C80.966 42.0412 80.9413 41.9314 80.8921 41.8348C80.8438 41.7382 80.7747 41.662 80.6847 41.6061C80.5957 41.5502 80.4906 41.5223 80.3694 41.5223C80.2359 41.5223 80.1203 41.5554 80.0228 41.6217C79.9262 41.6871 79.8519 41.7723 79.7998 41.8774C79.7477 41.9825 79.7216 42.0952 79.7216 42.2155V42.4087C79.7216 42.5734 79.7501 42.7131 79.8069 42.8277C79.8646 42.9413 79.9447 43.028 80.0469 43.0876C80.1492 43.1464 80.2681 43.1757 80.4035 43.1757C80.4915 43.1757 80.5711 43.1634 80.6421 43.1388C80.7141 43.1132 80.7761 43.0753 80.8282 43.0251C80.8803 42.974 80.9205 42.9106 80.9489 42.8348L81.2728 42.9257C81.2387 43.0356 81.1814 43.1322 81.1009 43.2155C81.0204 43.2979 80.921 43.3623 80.8026 43.4087C80.6842 43.4541 80.5512 43.4769 80.4035 43.4769ZM82.512 42.1189V43.4314H82.1768V41.2496H82.5007V41.5905H82.5291C82.5802 41.4797 82.6579 41.3907 82.762 41.3234C82.8662 41.2553 83.0007 41.2212 83.1655 41.2212C83.3132 41.2212 83.4424 41.2515 83.5532 41.3121C83.664 41.3717 83.7502 41.4626 83.8118 41.5848C83.8733 41.706 83.9041 41.8594 83.9041 42.045V43.4314H83.5689V42.0678C83.5689 41.8964 83.5244 41.7628 83.4353 41.6672C83.3463 41.5706 83.2242 41.5223 83.0689 41.5223C82.9619 41.5223 82.8662 41.5455 82.7819 41.5919C82.6986 41.6383 82.6328 41.706 82.5845 41.795C82.5362 41.884 82.512 41.992 82.512 42.1189ZM85.8255 41.2496V41.5337H84.6948V41.2496H85.8255ZM85.0244 40.7269H85.3596V42.8064C85.3596 42.9011 85.3733 42.9721 85.4008 43.0195C85.4292 43.0659 85.4652 43.0971 85.5088 43.1132C85.5533 43.1284 85.6001 43.1359 85.6494 43.1359C85.6863 43.1359 85.7166 43.134 85.7403 43.1303C85.764 43.1255 85.7829 43.1217 85.7971 43.1189L85.8653 43.42C85.8426 43.4286 85.8108 43.4371 85.7701 43.4456C85.7294 43.4551 85.6778 43.4598 85.6153 43.4598C85.5206 43.4598 85.4278 43.4394 85.3369 43.3987C85.2469 43.358 85.1721 43.296 85.1125 43.2126C85.0537 43.1293 85.0244 43.0242 85.0244 42.8973V40.7269ZM88.8168 43.4825C88.6786 43.4825 88.5531 43.4565 88.4404 43.4044C88.3277 43.3514 88.2382 43.2751 88.1719 43.1757C88.1057 43.0753 88.0725 42.9541 88.0725 42.8121C88.0725 42.6871 88.0971 42.5858 88.1464 42.5081C88.1956 42.4295 88.2614 42.3679 88.3438 42.3234C88.4262 42.2789 88.5171 42.2458 88.6165 42.224C88.7169 42.2013 88.8178 42.1833 88.9191 42.17C89.0517 42.153 89.1592 42.1402 89.2415 42.1317C89.3249 42.1222 89.3855 42.1066 89.4234 42.0848C89.4622 42.063 89.4816 42.0251 89.4816 41.9712V41.9598C89.4816 41.8197 89.4433 41.7108 89.3665 41.6331C89.2908 41.5554 89.1757 41.5166 89.0214 41.5166C88.8613 41.5166 88.7359 41.5517 88.645 41.6217C88.554 41.6918 88.4901 41.7666 88.4532 41.8462L88.135 41.7325C88.1918 41.6 88.2676 41.4967 88.3623 41.4229C88.4579 41.3481 88.5621 41.296 88.6748 41.2666C88.7884 41.2363 88.9002 41.2212 89.01 41.2212C89.0801 41.2212 89.1606 41.2297 89.2515 41.2467C89.3433 41.2628 89.4319 41.2965 89.5171 41.3476C89.6033 41.3987 89.6748 41.4759 89.7316 41.5791C89.7884 41.6823 89.8168 41.8206 89.8168 41.9939V43.4314H89.4816V43.1359H89.4646C89.4418 43.1833 89.404 43.234 89.3509 43.2879C89.2979 43.3419 89.2273 43.3878 89.1393 43.4257C89.0512 43.4636 88.9437 43.4825 88.8168 43.4825ZM88.868 43.1814C89.0005 43.1814 89.1123 43.1554 89.2032 43.1033C89.2951 43.0512 89.3642 42.984 89.4106 42.9016C89.4579 42.8192 89.4816 42.7325 89.4816 42.6416V42.3348C89.4674 42.3519 89.4362 42.3675 89.3879 42.3817C89.3405 42.3949 89.2856 42.4068 89.2231 42.4172C89.1615 42.4267 89.1014 42.4352 89.0427 42.4428C88.9849 42.4494 88.938 42.4551 88.9021 42.4598C88.8149 42.4712 88.7335 42.4896 88.6577 42.5152C88.5829 42.5398 88.5223 42.5772 88.4759 42.6274C88.4305 42.6767 88.4077 42.7439 88.4077 42.8291C88.4077 42.9456 88.4508 43.0337 88.537 43.0933C88.6241 43.152 88.7344 43.1814 88.868 43.1814ZM91.1239 42.1189V43.4314H90.7887V41.2496H91.1126V41.5905H91.141C91.1921 41.4797 91.2698 41.3907 91.3739 41.3234C91.4781 41.2553 91.6126 41.2212 91.7773 41.2212C91.9251 41.2212 92.0543 41.2515 92.1651 41.3121C92.2759 41.3717 92.3621 41.4626 92.4236 41.5848C92.4852 41.706 92.516 41.8594 92.516 42.045V43.4314H92.1807V42.0678C92.1807 41.8964 92.1362 41.7628 92.0472 41.6672C91.9582 41.5706 91.836 41.5223 91.6807 41.5223C91.5737 41.5223 91.4781 41.5455 91.3938 41.5919C91.3105 41.6383 91.2447 41.706 91.1964 41.795C91.1481 41.884 91.1239 41.992 91.1239 42.1189ZM94.3124 43.4769C94.1306 43.4769 93.9701 43.4309 93.8309 43.3391C93.6917 43.2463 93.5828 43.1156 93.5042 42.947C93.4256 42.7775 93.3863 42.5772 93.3863 42.3462C93.3863 42.117 93.4256 41.9181 93.5042 41.7496C93.5828 41.581 93.6921 41.4508 93.8323 41.359C93.9724 41.2671 94.1344 41.2212 94.3181 41.2212C94.4601 41.2212 94.5723 41.2448 94.6547 41.2922C94.7381 41.3386 94.8015 41.3916 94.8451 41.4513C94.8896 41.51 94.9241 41.5583 94.9488 41.5962H94.9772V40.5223H95.3124V43.4314H94.9885V43.0962H94.9488C94.9241 43.1359 94.8891 43.1861 94.8437 43.2467C94.7982 43.3064 94.7333 43.3599 94.6491 43.4072C94.5648 43.4537 94.4526 43.4769 94.3124 43.4769ZM94.3579 43.1757C94.4923 43.1757 94.606 43.1407 94.6988 43.0706C94.7916 42.9996 94.8621 42.9016 94.9104 42.7766C94.9587 42.6506 94.9829 42.5053 94.9829 42.3405C94.9829 42.1776 94.9592 42.0351 94.9118 41.9129C94.8645 41.7898 94.7944 41.6942 94.7016 41.626C94.6088 41.5569 94.4942 41.5223 94.3579 41.5223C94.2158 41.5223 94.0974 41.5588 94.0027 41.6317C93.909 41.7037 93.8384 41.8017 93.7911 41.9257C93.7447 42.0488 93.7215 42.1871 93.7215 42.3405C93.7215 42.4958 93.7452 42.6369 93.7925 42.7638C93.8408 42.8897 93.9118 42.9901 94.0056 43.0649C94.1003 43.1388 94.2177 43.1757 94.3579 43.1757ZM98.7611 43.4314H97.8634V40.5223H98.8009C99.0831 40.5223 99.3245 40.5805 99.5253 40.697C99.7261 40.8126 99.8799 40.9787 99.9869 41.1956C100.094 41.4115 100.147 41.67 100.147 41.9712C100.147 42.2742 100.093 42.5351 99.9855 42.7538C99.8776 42.9716 99.7204 43.1393 99.5139 43.2567C99.3075 43.3732 99.0565 43.4314 98.7611 43.4314ZM98.2156 43.1189H98.7384C98.9789 43.1189 99.1782 43.0725 99.3364 42.9797C99.4945 42.8869 99.6124 42.7548 99.6901 42.5834C99.7677 42.412 99.8065 42.2079 99.8065 41.9712C99.8065 41.7363 99.7682 41.5341 99.6915 41.3646C99.6148 41.1942 99.5002 41.0635 99.3477 40.9726C99.1953 40.8807 99.0054 40.8348 98.7781 40.8348H98.2156V43.1189ZM101.968 43.4769C101.757 43.4769 101.576 43.4304 101.424 43.3376C101.272 43.2439 101.155 43.1132 101.073 42.9456C100.991 42.777 100.951 42.581 100.951 42.3575C100.951 42.134 100.991 41.9371 101.073 41.7666C101.155 41.5952 101.27 41.4617 101.417 41.3661C101.564 41.2695 101.737 41.2212 101.934 41.2212C102.047 41.2212 102.159 41.2401 102.27 41.278C102.381 41.3159 102.482 41.3774 102.573 41.4626C102.664 41.5469 102.736 41.6587 102.79 41.7979C102.844 41.9371 102.871 42.1085 102.871 42.3121V42.4541H101.189V42.1644H102.53C102.53 42.0412 102.506 41.9314 102.456 41.8348C102.408 41.7382 102.339 41.662 102.249 41.6061C102.16 41.5502 102.055 41.5223 101.934 41.5223C101.8 41.5223 101.685 41.5554 101.587 41.6217C101.49 41.6871 101.416 41.7723 101.364 41.8774C101.312 41.9825 101.286 42.0952 101.286 42.2155V42.4087C101.286 42.5734 101.314 42.7131 101.371 42.8277C101.429 42.9413 101.509 43.028 101.611 43.0876C101.713 43.1464 101.832 43.1757 101.968 43.1757C102.056 43.1757 102.135 43.1634 102.206 43.1388C102.278 43.1132 102.34 43.0753 102.392 43.0251C102.444 42.974 102.485 42.9106 102.513 42.8348L102.837 42.9257C102.803 43.0356 102.746 43.1322 102.665 43.2155C102.585 43.2979 102.485 43.3623 102.367 43.4087C102.248 43.4541 102.115 43.4769 101.968 43.4769ZM104.627 43.4769C104.423 43.4769 104.247 43.4286 104.099 43.332C103.951 43.2354 103.838 43.1023 103.758 42.9328C103.679 42.7633 103.639 42.5697 103.639 42.3519C103.639 42.1303 103.679 41.9347 103.761 41.7652C103.843 41.5947 103.958 41.4617 104.105 41.3661C104.252 41.2695 104.425 41.2212 104.622 41.2212C104.775 41.2212 104.913 41.2496 105.036 41.3064C105.16 41.3632 105.26 41.4428 105.339 41.545C105.418 41.6473 105.466 41.7666 105.485 41.903H105.15C105.125 41.8036 105.068 41.7155 104.98 41.6388C104.893 41.5611 104.775 41.5223 104.627 41.5223C104.497 41.5223 104.382 41.5564 104.284 41.6246C104.186 41.6918 104.11 41.787 104.055 41.9101C104.001 42.0322 103.974 42.1757 103.974 42.3405C103.974 42.509 104.001 42.6558 104.054 42.7808C104.108 42.9058 104.183 43.0029 104.281 43.072C104.379 43.1412 104.495 43.1757 104.627 43.1757C104.715 43.1757 104.794 43.1606 104.865 43.1303C104.936 43.1 104.996 43.0564 105.045 42.9996C105.094 42.9428 105.129 42.8746 105.15 42.795H105.485C105.466 42.9238 105.42 43.0398 105.345 43.143C105.271 43.2453 105.173 43.3268 105.051 43.3874C104.929 43.447 104.788 43.4769 104.627 43.4769ZM106.335 43.4314V41.2496H106.671V43.4314H106.335ZM106.506 40.8859C106.441 40.8859 106.384 40.8637 106.337 40.8192C106.29 40.7747 106.267 40.7212 106.267 40.6587C106.267 40.5962 106.29 40.5427 106.337 40.4982C106.384 40.4537 106.441 40.4314 106.506 40.4314C106.571 40.4314 106.627 40.4537 106.673 40.4982C106.721 40.5427 106.745 40.5962 106.745 40.6587C106.745 40.7212 106.721 40.7747 106.673 40.8192C106.627 40.8637 106.571 40.8859 106.506 40.8859ZM109.19 41.7382L108.889 41.8234C108.87 41.7733 108.842 41.7245 108.805 41.6771C108.769 41.6288 108.72 41.5891 108.657 41.5578C108.595 41.5266 108.515 41.5109 108.417 41.5109C108.284 41.5109 108.173 41.5417 108.084 41.6033C107.995 41.6639 107.951 41.7411 107.951 41.8348C107.951 41.9181 107.982 41.984 108.042 42.0322C108.103 42.0805 108.198 42.1208 108.326 42.153L108.65 42.2325C108.845 42.2799 108.991 42.3523 109.086 42.4499C109.182 42.5465 109.23 42.671 109.23 42.8234C109.23 42.9484 109.194 43.0602 109.122 43.1587C109.051 43.2572 108.951 43.3348 108.824 43.3916C108.696 43.4484 108.547 43.4769 108.378 43.4769C108.155 43.4769 107.971 43.4286 107.825 43.332C107.679 43.2354 107.587 43.0943 107.548 42.9087L107.866 42.8291C107.897 42.9465 107.954 43.0346 108.038 43.0933C108.123 43.152 108.235 43.1814 108.372 43.1814C108.528 43.1814 108.652 43.1483 108.744 43.082C108.837 43.0147 108.883 42.9342 108.883 42.8405C108.883 42.7647 108.857 42.7013 108.804 42.6501C108.751 42.5981 108.669 42.5592 108.559 42.5337L108.196 42.4484C107.996 42.4011 107.849 42.3277 107.755 42.2283C107.663 42.1279 107.616 42.0024 107.616 41.8519C107.616 41.7287 107.651 41.6198 107.72 41.5251C107.79 41.4304 107.885 41.3561 108.005 41.3021C108.127 41.2482 108.264 41.2212 108.417 41.2212C108.633 41.2212 108.803 41.2685 108.926 41.3632C109.05 41.4579 109.138 41.5829 109.19 41.7382ZM110.094 43.4314V41.2496H110.43V43.4314H110.094ZM110.265 40.8859C110.2 40.8859 110.143 40.8637 110.096 40.8192C110.049 40.7747 110.026 40.7212 110.026 40.6587C110.026 40.5962 110.049 40.5427 110.096 40.4982C110.143 40.4537 110.2 40.4314 110.265 40.4314C110.33 40.4314 110.386 40.4537 110.433 40.4982C110.48 40.5427 110.504 40.5962 110.504 40.6587C110.504 40.7212 110.48 40.7747 110.433 40.8192C110.386 40.8637 110.33 40.8859 110.265 40.8859ZM112.29 43.4769C112.093 43.4769 111.92 43.43 111.772 43.3362C111.624 43.2425 111.508 43.1113 111.425 42.9428C111.343 42.7742 111.301 42.5772 111.301 42.3519C111.301 42.1246 111.343 41.9262 111.425 41.7567C111.508 41.5872 111.624 41.4555 111.772 41.3618C111.92 41.268 112.093 41.2212 112.29 41.2212C112.487 41.2212 112.659 41.268 112.807 41.3618C112.956 41.4555 113.071 41.5872 113.154 41.7567C113.237 41.9262 113.279 42.1246 113.279 42.3519C113.279 42.5772 113.237 42.7742 113.154 42.9428C113.071 43.1113 112.956 43.2425 112.807 43.3362C112.659 43.43 112.487 43.4769 112.29 43.4769ZM112.29 43.1757C112.44 43.1757 112.563 43.1374 112.659 43.0607C112.756 42.984 112.827 42.8831 112.874 42.7581C112.92 42.6331 112.943 42.4977 112.943 42.3519C112.943 42.206 112.92 42.0701 112.874 41.9442C112.827 41.8182 112.756 41.7164 112.659 41.6388C112.563 41.5611 112.44 41.5223 112.29 41.5223C112.14 41.5223 112.017 41.5611 111.921 41.6388C111.824 41.7164 111.753 41.8182 111.706 41.9442C111.66 42.0701 111.637 42.206 111.637 42.3519C111.637 42.4977 111.66 42.6331 111.706 42.7581C111.753 42.8831 111.824 42.984 111.921 43.0607C112.017 43.1374 112.14 43.1757 112.29 43.1757ZM114.486 42.1189V43.4314H114.15V41.2496H114.474V41.5905H114.503C114.554 41.4797 114.631 41.3907 114.736 41.3234C114.84 41.2553 114.974 41.2212 115.139 41.2212C115.287 41.2212 115.416 41.2515 115.527 41.3121C115.638 41.3717 115.724 41.4626 115.785 41.5848C115.847 41.706 115.878 41.8594 115.878 42.045V43.4314H115.542V42.0678C115.542 41.8964 115.498 41.7628 115.409 41.6672C115.32 41.5706 115.198 41.5223 115.042 41.5223C114.935 41.5223 114.84 41.5455 114.756 41.5919C114.672 41.6383 114.606 41.706 114.558 41.795C114.51 41.884 114.486 41.992 114.486 42.1189ZM118.381 40.5223H118.801L119.79 42.9371H119.824L120.813 40.5223H121.233V43.4314H120.903V41.2212H120.875L119.966 43.4314H119.648L118.739 41.2212H118.71V43.4314H118.381V40.5223ZM122.896 43.4825C122.758 43.4825 122.632 43.4565 122.519 43.4044C122.407 43.3514 122.317 43.2751 122.251 43.1757C122.185 43.0753 122.152 42.9541 122.152 42.8121C122.152 42.6871 122.176 42.5858 122.225 42.5081C122.275 42.4295 122.34 42.3679 122.423 42.3234C122.505 42.2789 122.596 42.2458 122.696 42.224C122.796 42.2013 122.897 42.1833 122.998 42.17C123.131 42.153 123.238 42.1402 123.321 42.1317C123.404 42.1222 123.465 42.1066 123.502 42.0848C123.541 42.063 123.561 42.0251 123.561 41.9712V41.9598C123.561 41.8197 123.522 41.7108 123.446 41.6331C123.37 41.5554 123.255 41.5166 123.1 41.5166C122.94 41.5166 122.815 41.5517 122.724 41.6217C122.633 41.6918 122.569 41.7666 122.532 41.8462L122.214 41.7325C122.271 41.6 122.347 41.4967 122.441 41.4229C122.537 41.3481 122.641 41.296 122.754 41.2666C122.867 41.2363 122.979 41.2212 123.089 41.2212C123.159 41.2212 123.24 41.2297 123.331 41.2467C123.422 41.2628 123.511 41.2965 123.596 41.3476C123.682 41.3987 123.754 41.4759 123.811 41.5791C123.867 41.6823 123.896 41.8206 123.896 41.9939V43.4314H123.561V43.1359H123.544C123.521 43.1833 123.483 43.234 123.43 43.2879C123.377 43.3419 123.306 43.3878 123.218 43.4257C123.13 43.4636 123.023 43.4825 122.896 43.4825ZM122.947 43.1814C123.08 43.1814 123.191 43.1554 123.282 43.1033C123.374 43.0512 123.443 42.984 123.49 42.9016C123.537 42.8192 123.561 42.7325 123.561 42.6416V42.3348C123.546 42.3519 123.515 42.3675 123.467 42.3817C123.42 42.3949 123.365 42.4068 123.302 42.4172C123.241 42.4267 123.18 42.4352 123.122 42.4428C123.064 42.4494 123.017 42.4551 122.981 42.4598C122.894 42.4712 122.813 42.4896 122.737 42.5152C122.662 42.5398 122.601 42.5772 122.555 42.6274C122.51 42.6767 122.487 42.7439 122.487 42.8291C122.487 42.9456 122.53 43.0337 122.616 43.0933C122.703 43.152 122.814 43.1814 122.947 43.1814ZM125.18 42.6359L125.175 42.2212H125.243L126.197 41.2496H126.612L125.595 42.278H125.567L125.18 42.6359ZM124.868 43.4314V40.5223H125.203V43.4314H124.868ZM126.254 43.4314L125.402 42.3519L125.64 42.1189L126.68 43.4314H126.254ZM127.404 43.4314V41.2496H127.739V43.4314H127.404ZM127.574 40.8859C127.509 40.8859 127.452 40.8637 127.405 40.8192C127.359 40.7747 127.335 40.7212 127.335 40.6587C127.335 40.5962 127.359 40.5427 127.405 40.4982C127.452 40.4537 127.509 40.4314 127.574 40.4314C127.639 40.4314 127.695 40.4537 127.742 40.4982C127.789 40.5427 127.813 40.5962 127.813 40.6587C127.813 40.7212 127.789 40.7747 127.742 40.8192C127.695 40.8637 127.639 40.8859 127.574 40.8859ZM129.048 42.1189V43.4314H128.713V41.2496H129.037V41.5905H129.065C129.116 41.4797 129.194 41.3907 129.298 41.3234C129.402 41.2553 129.537 41.2212 129.701 41.2212C129.849 41.2212 129.978 41.2515 130.089 41.3121C130.2 41.3717 130.286 41.4626 130.348 41.5848C130.409 41.706 130.44 41.8594 130.44 42.045V43.4314H130.105V42.0678C130.105 41.8964 130.06 41.7628 129.971 41.6672C129.882 41.5706 129.76 41.5223 129.605 41.5223C129.498 41.5223 129.402 41.5455 129.318 41.5919C129.235 41.6383 129.169 41.706 129.12 41.795C129.072 41.884 129.048 41.992 129.048 42.1189ZM132.293 44.295C132.131 44.295 131.992 44.2742 131.876 44.2325C131.759 44.1918 131.662 44.1378 131.584 44.0706C131.508 44.0043 131.447 43.9333 131.401 43.8575L131.668 43.67C131.699 43.7098 131.737 43.7553 131.783 43.8064C131.83 43.8585 131.893 43.9035 131.974 43.9413C132.055 43.9802 132.162 43.9996 132.293 43.9996C132.469 43.9996 132.615 43.957 132.729 43.8717C132.844 43.7865 132.901 43.653 132.901 43.4712V43.028H132.873C132.848 43.0678 132.813 43.117 132.768 43.1757C132.723 43.2335 132.659 43.2851 132.575 43.3305C132.491 43.3751 132.379 43.3973 132.236 43.3973C132.06 43.3973 131.902 43.3556 131.762 43.2723C131.623 43.189 131.513 43.0678 131.431 42.9087C131.351 42.7496 131.31 42.5564 131.31 42.3291C131.31 42.1056 131.35 41.911 131.428 41.7453C131.507 41.5787 131.616 41.4499 131.756 41.359C131.897 41.2671 132.058 41.2212 132.242 41.2212C132.384 41.2212 132.497 41.2448 132.58 41.2922C132.664 41.3386 132.729 41.3916 132.773 41.4513C132.819 41.51 132.854 41.5583 132.879 41.5962H132.913V41.2496H133.236V43.4939C133.236 43.6814 133.194 43.8339 133.109 43.9513C133.024 44.0697 132.911 44.1563 132.768 44.2112C132.626 44.2671 132.468 44.295 132.293 44.295ZM132.282 43.0962C132.416 43.0962 132.53 43.0654 132.623 43.0038C132.716 42.9423 132.786 42.8537 132.834 42.7382C132.883 42.6227 132.907 42.4844 132.907 42.3234C132.907 42.1662 132.883 42.0275 132.836 41.9072C132.789 41.787 132.718 41.6928 132.626 41.6246C132.533 41.5564 132.418 41.5223 132.282 41.5223C132.14 41.5223 132.022 41.5583 131.927 41.6303C131.833 41.7022 131.763 41.7988 131.715 41.92C131.669 42.0412 131.646 42.1757 131.646 42.3234C131.646 42.475 131.669 42.609 131.717 42.7254C131.765 42.841 131.836 42.9319 131.93 42.9982C132.024 43.0635 132.142 43.0962 132.282 43.0962Z" fill="black"/>
</svg>
